:SAMPLES-PER-SECOND 30
:FULLY-SPECIFIED
:DEGREES
409
root  61.2554 37.362 1.26877 -41.3666 86.5093 -38.215
RightUpLeg  -21.2653 -5.65733 4.8282
RightLeg  17.238 0.225311 0.664236
RightFoot  6.17419 0.576182 -3.46896
RightToes  -3.31784e-009 0 -3.6325e-017
Spine  10.7725 0.121744 12.2545
Spine1  1.10049 1.90229 -3.08767
HEad  -22.9521 0.880356 -4.79787
LeftShoulder1  -0.18663 3.96059 -34.6762
LeftArm  -2.02581 13.5941 -40.7831
LeftForeArm  41.8768 -6.41411 -9.85567
LeftHand  -0.191209 11.5158 -2.28671
RightShoulder  -1.47786 -7.15548 33.934
RightArm  13.8484 1.13061 40.045
RightForeArm  20.6332 4.53499 7.13994
RightHand  -0.00873823 2.87232 -0.345326
LeftUpLeg  15.967 4.08788 2.64099
LeftLeg  25.2561 -3.23011 -1.38358
LeftFoot  -18.516 -0.32913 -7.21669
LeftToes  1.28511e-009 -3.60458e-011 6.16399e-011
410
root  62.2226 37.3917 1.47608 -57.7009 86.6708 -54.7555
RightUpLeg  -21.1307 -5.42324 5.26078
RightLeg  19.7921 -0.94972 0.114033
RightFoot  4.01073 0.666737 -4.74549
RightToes  -3.31784e-009 0 -3.6325e-017
Spine  10.4523 -0.0684052 12.8783
Spine1  1.75871 1.86169 -2.33012
HEad  -22.1251 -0.948362 -3.95296
LeftShoulder1  0.0322202 3.42384 -34.2511
LeftArm  -3.84506 17.3077 -39.9707
LeftForeArm  43.6574 -5.03153 -9.09121
LeftHand  -0.306886 11.8249 -4.20369
RightShoulder  -1.27934 -6.79183 32.329
RightArm  12.0881 6.3575 43.3948
RightForeArm  19.9891 5.06227 6.67254
RightHand  0.00189303 2.86782 -0.194265
LeftUpLeg  11.7118 3.44632 4.03922
LeftLeg  34.5021 -5.16594 -3.42975
LeftFoot  -12.1588 -0.00308036 -11.1512
LeftToes  1.28511e-009 -3.60458e-011 6.16399e-011
411
root  63.1655 37.4549 1.68719 -87.4886 86.7443 -84.8385
RightUpLeg  -20.5041 -6.43879 5.75874
RightLeg  21.3924 -1.93645 0.0291595
RightFoot  2.02517 0.695349 -5.78425
RightToes  -3.31784e-009 0 -3.6325e-017
Spine  8.70732 -0.145228 13.1924
Spine1  3.83555 1.52966 -0.5264
HEad  -21.3524 -1.40035 -4.18814
LeftShoulder1  0.263654 2.84567 -33.9179
LeftArm  -3.87475 19.2802 -39.3459
LeftForeArm  45.2535 -4.52789 -8.96599
LeftHand  -0.336453 11.6676 -4.82673
RightShoulder  -1.01818 -6.25893 30.4386
RightArm  9.87348 10.6981 46.1278
RightForeArm  17.8747 7.34147 5.86573
RightHand  -0.00184851 2.9321 -0.222891
LeftUpLeg  5.74455 1.21361 5.17639
LeftLeg  44.6562 -4.79764 -4.65879
LeftFoot  -2.03552 0.93124 -11.7645
LeftToes  1.28511e-009 -3.60458e-011 6.16399e-011
412
root  64.0504 37.4882 1.8565 -103.056 85.6104 -100.107
RightUpLeg  -18.9753 -6.68612 6.5698
RightLeg  22.2653 -2.88768 -0.0247661
RightFoot  -0.148736 0.537876 -5.49784
RightToes  -3.31784e-009 0 -3.6325e-017
Spine  8.99562 0.0429656 15.7312
Spine1  3.75171 2.27653 -1.21015
HEad  -19.5846 -2.72112 -4.03563
LeftShoulder1  0.41782 2.45269 -33.6541
LeftArm  -2.97058 20.484 -37.8287
LeftForeArm  46.8186 -5.17656 -9.33518
LeftHand  -0.397591 11.7268 -5.8439
RightShoulder  -0.990559 -6.20212 30.148
RightArm  9.8101 14.1555 46.2247
RightForeArm  11.9962 11.1883 5.51433
RightHand  -0.0799545 5.27588 -1.19283
LeftUpLeg  0.342777 -0.179732 6.81955
LeftLeg  53.3997 -4.0675 -5.39859
LeftFoot  7.49772 1.61321 -9.89753
LeftToes  1.28511e-009 -3.60458e-011 6.16399e-011
413
root  64.8867 37.5397 2.01181 -113.907 84.9516 -110.491
RightUpLeg  -17.4107 -6.96954 6.77522
RightLeg  23.1641 -3.75609 -0.114179
RightFoot  -2.01672 0.424592 -5.35343
RightToes  -3.31784e-009 0 -3.6325e-017
Spine  9.16185 0.351614 18.7271
Spine1  4.08571 3.49945 -3.4011
HEad  -17.8154 -4.64765 -3.31777
LeftShoulder1  0.567959 2.05801 -33.1843
LeftArm  -2.37989 20.7101 -36.5291
LeftForeArm  45.9953 -6.34516 -9.25371
LeftHand  -0.543202 11.9426 -8.07934
RightShoulder  -0.945925 -6.09129 29.9849
RightArm  10.5381 16.9586 45.9207
RightForeArm  6.83243 15.6961 4.85535
RightHand  -0.136144 6.37869 -1.67244
LeftUpLeg  -4.15387 -1.0823 7.90027
LeftLeg  59.6403 -3.31898 -5.58015
LeftFoot  7.17083 1.48999 -9.36493
LeftToes  1.28511e-009 -3.60458e-011 6.16399e-011
414
root  65.8049 37.7403 2.19008 -121.568 85.4539 -117.812
RightUpLeg  -15.263 -6.91533 6.00651
RightLeg  22.8594 -4.19474 -0.194234
RightFoot  -3.61533 0.303574 -4.86041
RightToes  -3.31784e-009 0 -3.6325e-017
Spine  9.04636 1.20359 20.4807
Spine1  4.21969 5.07293 -6.08149
HEad  -15.7474 -6.50392 -2.6542
LeftShoulder1  0.71961 1.65228 -32.7823
LeftArm  -2.50724 21.3501 -35.9087
LeftForeArm  42.5713 -9.05832 -8.38264
LeftHand  -0.746735 13.398 -9.37028
RightShoulder  -0.934066 -6.07765 29.7057
RightArm  9.85453 19.1055 45.1637
RightForeArm  5.03726 20.5242 4.415
RightHand  -0.263599 6.87189 -2.86874
LeftUpLeg  -8.0214 -1.15213 7.6859
LeftLeg  62.5515 -2.76351 -5.18305
LeftFoot  5.43281 1.02903 -7.2141
LeftToes  1.28511e-009 -3.60458e-011 6.16399e-011
